<?xml version="1.0" standalone="no"?>
<!DOCTYPE svg PUBLIC "-//W3C//DTD SVG 20010904//EN"
 "http://www.w3.org/TR/2001/REC-SVG-20010904/DTD/svg10.dtd">
<svg version="1.0" xmlns="http://www.w3.org/2000/svg"
 width="512.000000pt" height="512.000000pt" viewBox="0 0 512.000000 512.000000"
 preserveAspectRatio="xMidYMid meet">
<metadata>
Created by potrace 1.14, written by Peter Selinger 2001-2017
</metadata>
<g transform="translate(0.000000,512.000000) scale(0.100000,-0.100000)"
fill="#000000" stroke="none">
<path d="M2264 4870 c-5 -5 -18 -11 -29 -13 -11 -2 -28 -7 -38 -12 -9 -4 -30
-5 -47 -3 -16 2 -27 1 -24 -4 3 -4 -8 -8 -25 -8 -16 0 -51 -10 -78 -22 -26
-12 -56 -23 -67 -24 -10 -1 -21 -6 -25 -11 -13 -19 -80 -53 -105 -53 -19 0
-30 -7 -38 -27 -12 -28 -42 -63 -53 -63 -4 0 -22 -16 -41 -35 -18 -19 -39 -35
-46 -35 -10 0 -9 -3 1 -9 11 -7 10 -11 -5 -19 -11 -5 -22 -10 -27 -11 -4 0
-15 -5 -25 -11 -13 -8 -11 -9 13 -4 l30 6 -29 -20 c-26 -19 -65 -83 -48 -81
23 4 21 -5 -9 -33 -19 -18 -33 -36 -32 -40 2 -4 -8 -15 -22 -24 -14 -9 -23
-20 -20 -24 3 -5 -3 -13 -12 -19 -10 -6 -14 -11 -9 -11 5 0 2 -8 -7 -18 -9
-10 -18 -27 -20 -39 -1 -12 -8 -28 -15 -36 -7 -8 -10 -21 -7 -29 4 -9 -3 -32
-14 -52 -12 -20 -20 -40 -19 -44 1 -4 -4 -20 -11 -36 -25 -61 -31 -123 -26
-255 6 -163 14 -261 21 -272 3 -5 7 -37 10 -72 8 -123 26 -242 61 -402 26
-123 25 -211 -5 -395 -6 -33 -4 -51 7 -68 8 -13 16 -36 18 -50 1 -15 5 -47 8
-72 8 -61 8 -71 2 -98 -3 -12 -1 -22 4 -22 6 0 7 -4 4 -10 -3 -5 -1 -10 4 -10
6 0 11 -15 11 -34 0 -19 5 -38 10 -41 6 -3 10 -21 10 -40 0 -19 4 -37 10 -40
5 -3 8 -20 6 -36 -2 -17 0 -47 4 -67 7 -32 12 -71 23 -187 1 -11 6 -26 10 -32
5 -7 5 -17 2 -23 -3 -5 1 -10 9 -10 9 0 16 8 17 18 0 9 3 12 5 5 3 -7 0 -22
-7 -35 -11 -21 -11 -22 4 -9 10 7 17 9 17 3 0 -6 3 -18 7 -28 5 -13 3 -15 -8
-10 -8 4 -3 -3 11 -15 16 -14 19 -20 8 -16 -10 3 -20 2 -23 -3 -4 -6 2 -10 12
-10 10 0 24 -9 31 -21 11 -17 11 -20 0 -14 -7 4 -2 -3 12 -14 14 -11 22 -21
18 -21 -4 0 0 -9 9 -20 9 -10 17 -38 18 -62 1 -23 7 -44 13 -46 7 -2 12 -8 12
-13 0 -6 -4 -7 -10 -4 -5 3 -10 -3 -10 -14 0 -11 5 -23 12 -27 8 -5 6 -11 -6
-19 -20 -15 -11 -45 13 -45 12 0 13 2 3 9 -11 7 -11 9 1 14 15 6 18 -28 4 -50
-6 -9 -3 -11 10 -6 15 6 16 4 5 -9 -10 -12 -9 -22 2 -49 7 -19 12 -40 10 -47
-1 -7 0 -8 3 -2 2 5 10 7 15 4 7 -4 8 -2 4 4 -4 7 -4 18 0 24 6 9 10 5 14 -12
4 -14 3 -30 -2 -36 -6 -8 -3 -11 9 -10 14 1 19 -8 21 -33 3 -25 6 -31 13 -20
5 8 9 9 9 2 0 -6 12 -25 28 -41 42 -46 51 -59 45 -66 -3 -3 3 -9 13 -13 10 -4
25 -14 32 -22 8 -9 11 -10 7 -3 -3 6 -1 12 4 12 6 0 11 -8 11 -17 0 -12 23
-29 71 -52 38 -19 75 -43 80 -54 7 -12 18 -17 30 -14 11 3 31 -6 51 -24 29
-25 54 -34 81 -30 4 0 7 -4 7 -9 0 -6 7 -10 15 -10 8 0 15 -4 15 -10 0 -5 10
-10 22 -10 21 0 21 0 -4 -22 -34 -32 -35 -73 -2 -95 24 -15 31 -15 82 -2 43
11 58 19 60 34 4 22 73 75 98 75 8 0 12 5 9 11 -4 6 2 13 14 16 12 3 21 10 21
15 0 6 9 8 20 5 12 -3 20 0 20 8 0 7 12 18 28 24 15 6 45 29 67 50 22 21 51
42 63 46 14 4 21 12 18 20 -3 10 0 12 11 8 12 -5 14 -3 8 7 -6 10 -4 12 8 7 9
-3 18 0 21 9 3 8 12 14 20 14 8 0 18 5 22 12 4 7 3 8 -4 4 -15 -9 -15 4 -2 24
9 13 11 13 19 1 13 -19 33 -2 56 45 12 26 21 34 33 29 9 -3 13 -3 10 1 -9 8
15 33 26 27 4 -3 5 4 1 16 -5 17 -3 20 11 14 11 -4 15 -3 11 4 -4 6 -2 17 5
25 7 7 20 26 28 43 8 16 27 41 42 55 17 16 30 42 34 67 7 43 45 98 60 85 4 -4
2 1 -6 11 -12 17 -11 21 10 39 14 11 18 16 10 12 -12 -6 -12 -4 1 12 9 10 19
27 22 37 4 9 15 17 26 17 23 0 27 11 36 110 3 36 6 71 7 78 1 6 5 12 10 12 4
0 8 6 8 13 0 6 7 26 16 42 15 28 28 92 40 190 3 22 7 51 11 65 3 14 7 36 9 50
2 14 8 26 14 28 5 2 10 22 10 43 0 22 6 70 14 107 15 70 31 219 41 382 4 52 9
106 12 120 9 42 54 134 73 152 9 9 25 49 35 90 10 40 21 78 25 83 4 6 12 39
19 75 7 36 18 97 26 135 22 106 26 132 38 235 12 113 14 281 3 330 -4 19 -9
49 -11 65 -5 40 -12 73 -24 114 -6 18 -10 36 -9 40 2 10 -14 45 -29 63 -8 9
-12 21 -9 26 3 5 -3 18 -13 29 -11 11 -28 41 -40 65 -11 25 -32 53 -46 62 -17
11 -25 25 -25 45 0 26 -4 29 -52 37 -49 8 -53 11 -61 45 -8 33 -11 36 -38 33
-41 -5 -56 13 -52 64 3 41 2 42 -22 36 -27 -7 -35 12 -14 33 9 9 -1 11 -38 9
-28 -2 -55 -6 -62 -10 -6 -4 -11 -2 -11 3 0 16 -38 51 -54 51 -7 0 -19 7 -26
15 -17 20 -49 19 -57 -2 -6 -14 -7 -14 -15 3 -25 54 -58 82 -58 49 0 -20 -16
-19 -24 2 -6 15 -8 15 -16 3 -8 -13 -10 -13 -10 1 0 9 -7 19 -15 23 -8 3 -15
12 -15 21 0 21 -43 15 -53 -9 -6 -15 -10 -16 -22 -6 -8 6 -25 13 -39 14 -13 2
-32 10 -41 20 -19 19 -45 21 -45 4 0 -9 -4 -8 -10 2 -8 12 -10 12 -10 -5 0
-17 -8 -20 -51 -23 -42 -3 -54 0 -65 17 -13 18 -17 18 -41 6 -19 -10 -29 -11
-34 -4 -4 8 -8 8 -10 1 -3 -7 -31 -6 -83 4 -47 8 -85 10 -94 5 -9 -5 -26 -5
-38 -1 -12 5 -25 5 -30 0z m881 -750 c18 -11 38 -20 44 -20 7 0 19 -6 26 -14
28 -28 142 -212 159 -256 20 -53 37 -152 24 -144 -4 3 -8 -19 -8 -49 0 -36 5
-59 18 -73 20 -23 26 -44 13 -44 -6 0 -6 -12 -1 -31 5 -17 9 -34 8 -38 -2 -16
25 -71 36 -71 18 0 42 -90 35 -132 -6 -40 -3 -390 5 -562 4 -89 2 -117 -14
-160 -18 -51 -30 -93 -36 -131 -1 -11 -9 -56 -17 -100 -8 -44 -23 -132 -32
-195 -10 -63 -25 -131 -33 -150 -8 -19 -16 -43 -17 -53 -1 -9 -16 -31 -33 -48
-18 -17 -32 -37 -32 -43 0 -6 -9 -19 -20 -29 -12 -10 -18 -23 -14 -29 5 -8 2
-9 -9 -5 -16 6 -22 -8 -18 -35 0 -4 -7 -4 -16 -1 -9 4 -14 2 -11 -3 3 -5 0
-14 -7 -21 -11 -10 -15 -10 -18 0 -3 7 -6 1 -6 -12 -1 -17 -5 -22 -17 -17 -11
4 -15 2 -11 -8 3 -8 -1 -17 -8 -20 -9 -3 -12 -12 -8 -22 4 -11 2 -15 -4 -11
-6 4 -14 -1 -17 -10 -6 -15 -8 -15 -16 -3 -7 11 -10 8 -10 -12 0 -16 -3 -28
-7 -28 -5 0 -16 -14 -25 -30 -17 -30 -18 -31 -48 -15 -17 9 -34 23 -37 31 -3
7 -10 14 -17 14 -6 0 -17 14 -25 31 -7 16 -16 28 -19 24 -3 -3 0 -11 6 -17 7
-7 12 -18 12 -26 0 -11 -3 -12 -14 -3 -11 9 -15 9 -19 -1 -3 -9 -7 -6 -12 7
-19 56 -24 61 -24 29 -1 -28 -31 -73 -31 -46 0 5 -10 8 -21 5 -21 -6 -21 -7
-4 -20 15 -10 15 -13 4 -13 -8 0 -20 5 -27 12 -9 9 -11 4 -7 -21 4 -31 2 -33
-23 -26 -25 6 -26 6 -9 -13 21 -23 22 -32 3 -32 -8 0 -18 9 -21 21 -5 15 -10
17 -19 10 -7 -6 -15 -10 -17 -8 -2 1 2 -4 10 -10 17 -15 8 -29 -11 -17 -7 5
-17 9 -23 10 -5 1 -18 5 -27 9 -13 5 -21 0 -29 -19 -7 -14 -16 -23 -20 -20 -5
3 -9 -1 -9 -8 -1 -7 -7 -2 -14 11 -13 23 -14 23 -25 5 -10 -16 -12 -16 -7 -1
3 11 0 17 -9 17 -8 0 -15 5 -15 12 0 6 -6 4 -14 -7 -12 -17 -13 -16 -20 10 -7
26 -8 27 -21 9 -14 -18 -16 -18 -29 -1 -13 16 -14 16 -19 -4 -4 -16 -11 -19
-26 -14 -13 4 -21 2 -21 -5 0 -6 4 -9 9 -6 5 3 11 0 14 -7 4 -10 -2 -13 -18
-9 -15 2 -22 9 -18 18 3 8 0 21 -7 29 -6 8 -9 23 -5 34 3 10 2 22 -2 24 -5 3
-9 -2 -9 -11 -1 -9 -5 -26 -9 -36 -6 -14 -5 -17 3 -12 7 4 12 3 12 -2 0 -13
-24 -22 -36 -14 -9 7 -16 27 -17 47 -1 22 -53 14 -71 -10 -10 -14 -25 -33 -33
-42 -14 -17 -14 -17 -9 1 6 16 4 17 -9 6 -13 -11 -14 -10 -9 4 3 9 15 16 25
16 11 0 19 7 19 17 0 13 -3 14 -12 5 -15 -15 -31 -16 -22 -1 12 20 -84 4 -108
-17 -21 -19 -21 -19 -7 4 8 12 23 22 34 23 11 0 14 3 7 6 -6 2 -10 9 -6 14 3
5 1 9 -5 9 -5 0 -12 -4 -15 -8 -3 -5 -19 -7 -36 -4 -30 4 -31 5 -13 25 12 14
13 17 3 11 -8 -5 -18 -9 -22 -10 -5 -1 -11 -3 -15 -4 -5 -1 -17 -2 -28 -1 -11
0 -14 -2 -7 -5 21 -10 13 -26 -10 -22 -13 2 -22 9 -20 16 1 6 -3 12 -9 12 -5
0 -7 5 -4 10 3 6 3 15 -1 21 -5 8 -9 8 -14 -1 -6 -10 -15 -8 -38 8 -16 12 -33
18 -37 14 -5 -4 -5 1 -2 11 4 9 2 17 -3 17 -6 0 -10 7 -10 15 0 8 -7 15 -15
15 -8 0 -15 5 -15 11 0 5 -16 17 -35 24 -26 12 -37 24 -46 55 -8 27 -18 40
-30 40 -13 0 -20 10 -25 35 -3 19 -9 35 -13 35 -6 0 -11 21 -14 63 -1 9 -5 17
-10 17 -5 0 -7 9 -4 20 3 11 1 20 -5 20 -6 0 -8 7 -4 15 3 8 1 15 -5 15 -6 0
-7 5 -4 10 3 6 0 10 -7 10 -9 0 -9 3 2 10 9 6 11 10 3 10 -7 0 -10 6 -7 13 7
20 11 87 5 87 -3 0 -6 17 -5 37 1 21 -3 45 -7 53 -17 29 -61 276 -66 366 -4
62 0 120 11 180 12 69 15 145 14 339 l-3 250 30 60 c27 56 29 69 31 195 1 74
3 135 4 135 2 0 9 33 13 70 7 48 67 184 67 150 0 -5 11 6 24 25 20 30 37 40
112 64 49 16 104 36 123 44 19 8 52 17 75 20 23 3 44 9 47 14 3 4 36 11 75 14
55 5 83 2 137 -16 37 -12 77 -20 88 -17 10 3 19 2 19 -3 0 -4 7 -11 16 -14 10
-4 13 -2 8 6 -5 7 -2 9 8 5 9 -3 28 1 44 10 33 17 272 25 277 9 2 -5 9 -6 17
-1 19 12 70 12 70 0 0 -5 4 -5 8 1 9 15 43 21 59 11 6 -4 23 -3 37 3 14 5 48
8 76 5 27 -2 52 0 55 4 7 13 94 -6 130 -29z m302 -632 c-3 -7 -5 -2 -5 12 0
14 2 19 5 13 2 -7 2 -19 0 -25z m-1877 -1590 c0 -19 -2 -20 -10 -8 -13 19 -13
30 0 30 6 0 10 -10 10 -22z m10 -32 c0 -3 -4 -8 -10 -11 -5 -3 -10 -1 -10 4 0
6 5 11 10 11 6 0 10 -2 10 -4z m450 -370 c0 -3 -4 -8 -10 -11 -5 -3 -10 -1
-10 4 0 6 5 11 10 11 6 0 10 -2 10 -4z m93 -36 c-5 -19 -23 -39 -23 -25 0 9
20 45 24 45 2 0 2 -9 -1 -20z m495 -65 c-3 -3 -9 2 -12 12 -6 14 -5 15 5 6 7
-7 10 -15 7 -18z m-853 -105 c3 -5 1 -10 -4 -10 -6 0 -11 5 -11 10 0 6 2 10 4
10 3 0 8 -4 11 -10z m1215 -234 c0 -3 -4 -8 -10 -11 -5 -3 -10 -1 -10 4 0 6 5
11 10 11 6 0 10 -2 10 -4z"/>
<path d="M1631 3243 c-32 -34 -60 -97 -50 -114 5 -10 6 -25 3 -33 -5 -12 -2
-15 10 -10 9 3 16 12 16 18 0 8 12 11 33 9 25 -2 28 -1 12 6 -19 8 -19 9 6 19
15 6 36 8 48 5 13 -3 21 -1 21 6 0 7 -4 9 -10 6 -5 -3 -10 -1 -10 4 0 14 6 14
38 -3 44 -22 76 -30 67 -17 -4 8 8 6 31 -4 21 -9 39 -17 40 -18 33 -44 22 -61
-53 -77 -51 -11 -141 -64 -153 -90 -26 -54 -29 -84 -14 -107 11 -17 21 -22 35
-18 14 5 26 0 38 -14 15 -17 23 -19 60 -10 23 5 46 7 52 4 5 -4 9 -2 9 3 0 5
-9 12 -19 15 -16 4 -18 12 -16 50 2 26 6 51 10 57 11 17 25 11 25 -11 0 -32
53 -79 88 -79 34 0 87 39 97 71 7 21 29 21 31 1 1 -7 3 -14 4 -17 1 -3 3 -22
4 -42 1 -21 5 -43 9 -50 4 -6 2 -15 -5 -20 -20 -12 43 -21 67 -10 21 11 35 26
35 41 0 4 -10 2 -23 -7 -21 -13 -23 -13 -23 3 0 10 3 18 6 17 3 -1 20 4 39 11
26 9 32 16 28 32 -3 12 0 20 7 20 21 0 39 46 32 77 -4 15 -8 50 -10 77 -2 47
-6 53 -61 103 -32 29 -64 52 -69 50 -6 -3 -27 2 -46 10 -99 40 -411 66 -439
36z m319 -225 c0 -5 -6 -8 -12 -5 -7 2 -24 0 -38 -5 -30 -11 -160 -37 -160
-32 0 2 19 13 42 25 65 33 168 44 168 17z m-25 -68 c-3 -5 -11 -10 -16 -10 -6
0 -7 5 -4 10 3 6 11 10 16 10 6 0 7 -4 4 -10z m85 0 c0 -5 -4 -10 -10 -10 -5
0 -10 5 -10 10 0 6 5 10 10 10 6 0 10 -4 10 -10z m175 -70 c3 -5 2 -10 -4 -10
-5 0 -17 -3 -25 -6 -12 -5 -15 -2 -10 10 7 18 29 21 39 6z"/>
<path d="M2996 3239 c2 -4 -21 -6 -51 -4 -30 1 -55 0 -55 -4 0 -3 -30 -7 -67
-8 -38 -1 -90 -4 -118 -8 -45 -6 -52 -10 -68 -42 -15 -30 -16 -34 -3 -24 9 8
16 9 16 3 0 -5 -7 -15 -15 -22 -8 -7 -15 -27 -15 -44 0 -18 -4 -36 -10 -42
-11 -11 -20 -73 -13 -91 3 -7 13 -13 23 -13 18 0 38 -36 26 -47 -8 -9 24 -43
41 -43 7 0 13 -8 13 -19 0 -22 15 -36 50 -45 19 -6 21 -5 10 3 -8 6 -12 11 -7
11 4 0 0 11 -8 24 -10 15 -12 25 -6 28 6 1 13 23 16 48 4 30 13 51 28 62 21
16 22 16 25 -5 6 -44 25 -78 53 -92 43 -23 68 -18 106 20 28 28 34 41 30 62
-5 25 -4 26 8 10 7 -10 17 -19 22 -19 24 -2 51 -37 49 -62 -4 -33 5 -40 30
-21 10 8 31 15 46 15 21 0 26 4 23 20 -10 50 -102 103 -212 121 -55 9 -70 15
-66 26 13 33 183 -10 228 -57 16 -17 36 -30 44 -30 9 0 1 15 -24 40 -37 38
-111 70 -163 70 -11 0 -30 9 -43 19 -21 17 -22 21 -9 33 22 20 76 35 155 43
39 4 77 10 85 14 8 5 26 5 40 0 24 -7 24 -7 3 -8 -13 -1 -23 -5 -23 -10 0 -5
16 -8 35 -6 19 2 35 -1 35 -6 0 -5 7 -9 15 -9 18 0 19 5 3 33 -9 18 -54 67
-61 67 -1 0 -16 4 -34 9 -27 8 -31 7 -26 -6 5 -13 3 -14 -17 -3 -23 13 -151
21 -144 9z m-46 -280 c0 -6 -4 -7 -10 -4 -5 3 -10 11 -10 16 0 6 5 7 10 4 6
-3 10 -11 10 -16z m-90 2 c0 -6 -4 -13 -10 -16 -5 -3 -10 1 -10 9 0 9 5 16 10
16 6 0 10 -4 10 -9z m-160 -92 c0 -6 -4 -7 -10 -4 -5 3 -10 11 -10 16 0 6 5 7
10 4 6 -3 10 -11 10 -16z"/>
<path d="M2805 2810 c-7 -12 31 -19 46 -9 15 10 14 10 -19 14 -12 1 -25 -1
-27 -5z"/>
<path d="M2888 2808 c6 -6 18 -8 28 -6 14 3 12 5 -9 10 -19 3 -25 2 -19 -4z"/>
<path d="M1916 2801 c-2 -3 9 -7 25 -8 15 -1 30 1 33 5 2 4 -9 7 -25 8 -16 1
-31 -2 -33 -5z"/>
<path d="M2220 2354 c-9 -3 -21 -14 -29 -26 -11 -18 -9 -24 25 -59 35 -35 36
-39 16 -39 -13 0 -22 -6 -22 -16 0 -9 -9 -18 -19 -21 -11 -3 -17 -11 -15 -17
3 -7 -2 -19 -11 -26 -13 -11 -15 -10 -9 6 5 17 4 17 -13 -2 -10 -12 -45 -39
-78 -62 -33 -22 -72 -53 -86 -68 -34 -37 -61 -117 -50 -147 11 -28 56 -34 69
-10 7 12 21 16 53 13 77 -5 94 -3 129 13 23 11 83 20 170 27 74 5 170 13 212
16 47 4 100 2 137 -5 33 -7 88 -14 123 -16 34 -3 71 -11 83 -19 28 -18 55 -3
55 30 0 30 -49 126 -61 119 -4 -3 -18 8 -31 25 -19 26 -27 30 -59 26 -28 -3
-42 1 -55 15 -9 10 -22 19 -29 19 -7 0 -22 9 -34 19 -13 11 -30 17 -39 14 -15
-4 -15 -3 -2 6 13 9 12 12 -7 17 -12 3 -24 13 -28 21 -4 13 -3 14 10 3 9 -7
15 -8 15 -2 0 14 -48 29 -85 27 -35 -2 -108 32 -102 49 2 7 36 11 93 12 81 0
89 2 89 20 0 13 -12 23 -41 33 -39 14 -44 13 -85 -11 -40 -23 -47 -24 -79 -13
-20 7 -56 15 -80 18 -25 4 -61 8 -80 11 -19 2 -42 2 -50 0z m123 -90 c-3 -8
-17 -13 -32 -12 -15 1 -32 -1 -38 -5 -6 -4 -17 0 -24 9 -18 22 -1 30 55 26 33
-3 43 -7 39 -18z m127 -224 c0 -5 -5 -10 -11 -10 -5 0 -7 5 -4 10 3 6 8 10 11
10 2 0 4 -4 4 -10z m-55 -10 c3 -6 -1 -7 -9 -4 -18 7 -21 14 -7 14 6 0 13 -4
16 -10z m42 -40 c1 -11 -2 -22 -8 -25 -5 -4 -9 -1 -9 4 0 6 -8 11 -17 11 -14
1 -12 4 7 15 14 8 25 14 25 15 1 0 1 -9 2 -20z m52 -8 c-12 -2 -26 2 -33 9 -8
9 -8 10 2 5 6 -4 12 -2 12 3 0 7 7 7 20 -1 21 -13 21 -13 -1 -16z"/>
<path d="M3322 2108 c-14 -14 -16 -38 -3 -38 10 0 26 39 19 46 -2 2 -10 -2
-16 -8z"/>
<path d="M3112 2093 c-1 -7 -8 -13 -15 -13 -12 0 -15 -29 -7 -50 1 -3 2 -8 1
-12 0 -5 4 -8 9 -8 15 0 22 24 17 62 -2 18 -5 27 -5 21z"/>
<path d="M1730 2043 c0 -4 5 -15 10 -23 8 -13 10 -13 10 2 0 9 -4 20 -10 23
-5 3 -10 3 -10 -2z"/>
<path d="M2485 1782 c-6 -6 -112 -20 -168 -22 -9 -1 -15 -6 -11 -11 3 -6 0 -9
-7 -8 -8 1 -27 -3 -42 -9 -16 -7 -32 -12 -37 -12 -18 0 -20 -20 -5 -50 8 -16
22 -30 29 -30 8 0 21 -11 29 -24 15 -22 64 -46 51 -24 -4 6 1 6 14 -1 23 -12
34 -35 26 -56 -4 -9 0 -15 10 -15 9 0 16 6 16 14 0 16 35 16 59 1 9 -5 12 -4
7 3 -3 6 -1 14 5 18 7 4 9 3 6 -3 -4 -6 1 -17 10 -24 14 -13 16 -11 11 14 -5
25 -3 27 26 27 31 0 58 12 57 24 -2 15 0 16 17 7 11 -6 20 -5 27 3 13 15 17
37 8 34 -8 -3 -13 5 -13 22 0 7 6 7 20 0 16 -9 20 -8 21 7 1 10 1 21 0 26 0 4
4 7 10 7 5 0 8 4 5 9 -4 5 -1 11 6 13 6 2 -6 17 -27 34 -31 23 -49 29 -96 31
-31 1 -60 -1 -64 -5z"/>
<path d="M1844 1589 c-3 -6 -1 -16 5 -22 9 -9 10 -7 5 7 -6 15 -4 17 6 11 9
-5 11 -4 6 3 -9 15 -13 15 -22 1z"/>
<path d="M1380 2936 c0 -2 8 -10 18 -17 15 -13 16 -12 3 4 -13 16 -21 21 -21
13z"/>
<path d="M3775 2890 c-17 -19 -17 -21 -1 -39 10 -11 24 -37 31 -57 21 -62 35
-54 35 19 0 36 -3 72 -6 81 -8 22 -37 20 -59 -4z"/>
<path d="M1260 2871 c-18 -35 -11 -113 15 -168 13 -29 26 -53 28 -53 2 0 0 31
-5 70 -7 55 -5 78 7 107 15 35 15 39 -1 50 -24 18 -32 16 -44 -6z"/>
<path d="M3606 2684 c-10 -27 -7 -34 20 -45 32 -12 38 -7 29 20 -9 29 -41 46
-49 25z"/>
<path d="M1600 1639 c0 -5 5 -7 10 -4 6 3 10 8 10 11 0 2 -4 4 -10 4 -5 0 -10
-5 -10 -11z"/>
<path d="M1595 1600 c3 -5 8 -10 11 -10 2 0 4 5 4 10 0 6 -5 10 -11 10 -5 0
-7 -4 -4 -10z"/>
<path d="M3271 1354 c0 -11 3 -14 6 -6 3 7 2 16 -1 19 -3 4 -6 -2 -5 -13z"/>
<path d="M3339 1077 c-1 -7 -1 -93 0 -192 3 -198 -3 -228 -70 -359 -17 -34
-48 -109 -68 -167 -21 -58 -41 -112 -45 -120 -12 -23 65 64 109 122 37 50 123
243 167 374 16 49 19 79 15 160 -2 55 -10 112 -18 126 -15 29 -88 74 -90 56z"/>
<path d="M1865 1070 c3 -5 8 -10 11 -10 2 0 4 5 4 10 0 6 -5 10 -11 10 -5 0
-7 -4 -4 -10z"/>
<path d="M1676 977 c-18 -73 -16 -167 8 -297 18 -104 24 -125 26 -90 l2 45 9
-40 c5 -22 11 -51 14 -63 4 -17 11 -22 23 -18 15 5 15 5 1 -6 -21 -17 -14 -40
56 -173 58 -110 98 -166 119 -162 6 1 10 -3 9 -10 -3 -15 133 -97 151 -90 36
14 -31 174 -152 361 -167 258 -242 418 -242 520 0 49 -14 62 -24 23z"/>
<path d="M2300 766 c0 -2 7 -7 16 -10 8 -3 12 -2 9 4 -6 10 -25 14 -25 6z"/>
<path d="M1730 313 c-28 -11 -116 -81 -152 -119 -33 -37 -110 -124 -152 -171
l-19 -23 267 0 267 0 -15 29 c-9 16 -35 47 -58 70 -36 34 -41 43 -32 58 10 15
3 31 -39 91 -27 39 -50 72 -51 71 0 0 -8 -3 -16 -6z"/>
<path d="M3155 159 c-22 -16 -49 -38 -60 -47 -11 -10 -24 -20 -30 -22 -5 -3
-9 -8 -8 -12 2 -4 -3 -5 -10 -2 -18 6 -53 -21 -39 -30 7 -4 12 -2 12 3 0 6 8
11 17 11 31 0 -17 -39 -57 -46 l-35 -7 25 23 c23 21 24 21 2 9 -13 -8 -23 -18
-23 -24 1 -10 381 -21 381 -10 0 30 -107 185 -127 185 -4 0 -26 -14 -48 -31z"/>
<path d="M1970 60 c8 -5 20 -10 25 -10 6 0 3 5 -5 10 -8 5 -19 10 -25 10 -5 0
-3 -5 5 -10z"/>
<path d="M2090 32 c0 -12 19 -26 26 -19 2 2 -2 10 -11 17 -9 8 -15 8 -15 2z"/>
<path d="M2020 26 c0 -2 7 -7 16 -10 8 -3 12 -2 9 4 -6 10 -25 14 -25 6z"/>
</g>
</svg>
